<svg xmlns="http://www.w3.org/2000/svg" viewBox="0 0 200 200" fill="none">
  <rect width="200" height="200" rx="40" fill="#3370FF"/>
  <path d="M60 55c0-5.523 4.477-10 10-10h20c16.569 0 30 13.431 30 30v5H80c-11.046 0-20-8.954-20-20V55z" fill="#fff"/>
  <path d="M120 80v10c0 22.091-17.909 40-40 40H60v-10c0-22.091 17.909-40 40-40h20z" fill="rgba(255,255,255,0.75)"/>
  <path d="M60 130h20c16.569 0 30 13.431 30 30v5c0 5.523-4.477 10-10 10H80c-11.046 0-20-8.954-20-20v-25z" fill="rgba(255,255,255,0.5)"/>
</svg>
